# xmcd CD database file
#
# Track frame offsets:
#	150
#	19085
#	42757
#	59410
#	68927
#	84152
#	104682
#	126045
#	144852
#	173870
#	194070
#	200552
#	217165
#	232857
#	252112
#
# Disc length: 3583 seconds
#
# Revision: 0
# Processed by: cddbd v1.5.1PL0 Copyright (c) Steve Scherf et al.
# Submitted via: CDex 1.51
#
DISCID=d70dfd0f
DTITLE=Miles Davis - Porgy and Bess
DYEAR=1958
DGENRE=Jazz
TTITLE0=Buzzard Song
TTITLE1=Bess, You Is My Woman Now
TTITLE2=Gone
TTITLE3=Gone, Gone, Gone
TTITLE4=Summertime
TTITLE5=Oh Bess, Oh Where's My Bess
TTITLE6=Prayer
TTITLE7=Fishermen, Strawberry And Devil Corb
TTITLE8=My Man's Gone Now
TTITLE9=It Ain't Necessary So
TTITLE10=Here Come De Honey Man
TTITLE11=I Loves You, Porgy
TTITLE12=There's A Boat That's Leaving Soon For New York
TTITLE13=I Loves You, Porgy (Alternate Take)
TTITLE14=Gone (Alternate Take)
EXTD=YEAR: 1958
EXTT0=
EXTT1=
EXTT2=
EXTT3=
EXTT4=
EXTT5=
EXTT6=
EXTT7=
EXTT8=
EXTT9=
EXTT10=
EXTT11=
EXTT12=
EXTT13=
EXTT14=
PLAYORDER=
